/* XPM */
static char * clustering_thms_xpm[] = {
"20 20 8 1",
" 	c None",
".	c #0000FA",
"+	c #FBFE00",
"@	c #FCFF00",
"#	c #FE0000",
"$	c #FF0000",
"%	c #4DFE00",
"&	c #4EFF00",
"              ..... ",
"                .   ",
"       +   @    .   ",
"                .   ",
"   +     + +    .   ",
"   +   + +      .   ",
"      @         . # ",
"   +    + +         ",
"        @      ##   ",
"       @      $  #  ",
"         @@   # $   ",
"                    ",
"     %       # $#   ",
"   &            $$$ ",
"     %  &    $      ",
"    &             $ ",
"  &   %&       $#   ",
"    %   %           ",
"   %            $   ",
"                    "};
