/* XPM */
static char * clustering_defs_xpm[] = {
"20 20 11 1",
" 	c None",
".	c #0000FA",
"+	c #FBFE00",
"@	c #FCFF00",
"#	c #7C007F",
"$	c #0B00EE",
"%	c #2E00CB",
"&	c #FF0000",
"*	c #FE0000",
"=	c #4DFE00",
"-	c #4EFF00",
"            ......  ",
"            .    .. ",
"       +   @.     ..",
"            .      .",
"   +     + +.      .",
"   +   + +  .      .",
"      @     .     #.",
"   +    + + .    .. ",
"        @   ...$%.  ",
"       @      &  *  ",
"         @@   * &   ",
"                    ",
"     =       * &*   ",
"   -            &&& ",
"     =  -    &      ",
"    -             & ",
"  -   =-       &*   ",
"    =   =           ",
"   =            &   ",
"                    "};
