/* XPM */
static char * sh_hint_def_xpm[] = {
"20 20 132 2",
"  	c None",
". 	c #0000F8",
"+ 	c #C1D2D1",
"@ 	c #C2D2D1",
"# 	c #C1D2D0",
"$ 	c #BBCECE",
"% 	c #E3EFEF",
"& 	c #F7FFFF",
"* 	c #FBFDFD",
"= 	c #FBFFFF",
"- 	c #F7FAFA",
"; 	c #E2EEED",
"> 	c #ACC2C0",
", 	c #ECF3F3",
"' 	c #FFC9CE",
") 	c #FC828D",
"! 	c #FEF2F3",
"~ 	c #FDB4BB",
"{ 	c #FEEEEF",
"] 	c #FFD5D8",
"^ 	c #AAC1C0",
"/ 	c #91AFAC",
"( 	c #DDE8E8",
"_ 	c #FEC9CF",
": 	c #FC7481",
"< 	c #FDD9DC",
"[ 	c #FFFFFF",
"} 	c #FB2237",
"| 	c #FECED2",
"1 	c #FD7F8B",
"2 	c #DBE5E6",
"3 	c #93B0AD",
"4 	c #B6CAC9",
"5 	c #E4EDEE",
"6 	c #FBE1E4",
"7 	c #FA5867",
"8 	c #FB7985",
"9 	c #FDFFFF",
"0 	c #FB182E",
"a 	c #FDC0C5",
"b 	c #FC7B87",
"c 	c #E5ECED",
"d 	c #B7CBCA",
"e 	c #C2D3D3",
"f 	c #DAE6E7",
"g 	c #F3EEEF",
"h 	c #FAC9CE",
"i 	c #FB4D5E",
"j 	c #FDEEEF",
"k 	c #FA0017",
"l 	c #FB7481",
"m 	c #FB7683",
"n 	c #DCE7E7",
"o 	c #C2D3D4",
"p 	c #B4C9C8",
"q 	c #D4E2E3",
"r 	c #E3D6D9",
"s 	c #F37C89",
"t 	c #F8959F",
"u 	c #FAFCFD",
"v 	c #FA8995",
"w 	c #FAE8EA",
"x 	c #F5B8BF",
"y 	c #D5E2E3",
"z 	c #B1C5C9",
"A 	c #98B4B3",
"B 	c #CAD9DA",
"C 	c #D7E5E3",
"D 	c #E2F3EA",
"E 	c #ECF9ED",
"F 	c #F1F4EA",
"G 	c #F2FFF2",
"H 	c #E9EEE5",
"I 	c #E5F0E8",
"J 	c #0102F7",
"K 	c #A8C0BF",
"L 	c #D6E1DE",
"M 	c #CFD9D7",
"N 	c #DCE4E2",
"O 	c #D8E2E1",
"P 	c #D0DAD6",
"Q 	c #DBE4E1",
"R 	c #D5E1E2",
"S 	c #A8C1BF",
"T 	c #B1C7C7",
"U 	c #C6D5D6",
"V 	c #C3D5D5",
"W 	c #BECFCF",
"X 	c #CBDADB",
"Y 	c #D4E0E1",
"Z 	c #B2C8C7",
"` 	c #CFDDDD",
" .	c #AAC2C4",
"..	c #A6BDC0",
"+.	c #C4D6D8",
"@.	c #BDD0D1",
"#.	c #A2BDBF",
"$.	c #C7D5D8",
"%.	c #A3B7B9",
"&.	c #95AEAF",
"*.	c #ACC2C7",
"=.	c #94B4B7",
"-.	c #9EAB78",
";.	c #9BB29D",
">.	c #90AAAF",
",.	c #8AA6AC",
"'.	c #8FAA96",
").	c #95A778",
"!.	c #A2971A",
"~.	c #ACA644",
"{.	c #C9C95E",
"].	c #D3D45F",
"^.	c #B9B34A",
"/.	c #A5981C",
"(.	c #ACA11C",
"_.	c #D0CD4C",
":.	c #E9E989",
"<.	c #F0F09E",
"[.	c #D5D25F",
"}.	c #ABA11E",
"|.	c #A69918",
"1.	c #B6B02E",
"2.	c #CCCB45",
"3.	c #D0CF47",
"4.	c #BCB836",
"5.	c #A69A1A",
"6.	c #AFA626",
"7.	c #B1AC32",
"8.	c #AFA931",
"9.	c #AEA525",
"0.	c #AA9F27",
"a.	c #A79B22",
"                          . . . . .     ",
"                + @ @ #   .         .   ",
"            $ % & * = - ; .           . ",
"          > , ' ) ! ~ { ] . ^         . ",
"        / ( _ : < [ } | 1 . 2 3       . ",
"        4 5 6 7 8 9 0 a b . c d       . ",
"        e f g h i j k l m . n o       . ",
"        p q r s t u v w x . y z     .   ",
"        A B C D E F G H I . . J . .     ",
"          K y L M N O P Q R S           ",
"            T y U V W X Y Z             ",
"              V `  ...+.@.              ",
"              #.$.%.&.*.=.              ",
"              -.;.>.,.'.).              ",
"              !.~.{.].^./.              ",
"              (._.:.<.[.}.              ",
"              |.1.2.3.4.5.              ",
"                6.7.8.9.                ",
"                  0.a.                  ",
"                                        "};
