/* XPM */
static char * sh_hint_thms_xpm[] = {
"20 20 138 2",
"  	c None",
". 	c #0000FA",
"+ 	c #C1D2D1",
"@ 	c #C2D2D1",
"# 	c #C1D2D0",
"$ 	c #BBCECE",
"% 	c #E3EFEF",
"& 	c #F7FFFF",
"* 	c #FBFDFD",
"= 	c #FBFFFF",
"- 	c #F7FAFA",
"; 	c #E2EEED",
"> 	c #BBCDCC",
", 	c #ACC2C0",
"' 	c #ECF3F3",
") 	c #FFC9CE",
"! 	c #FC828D",
"~ 	c #FEF2F3",
"{ 	c #FDB4BB",
"] 	c #FEEEEF",
"^ 	c #FFD5D8",
"/ 	c #EBF3F3",
"( 	c #AAC1C0",
"_ 	c #91AFAC",
": 	c #DDE8E8",
"< 	c #FEC9CF",
"[ 	c #FC7481",
"} 	c #FDD9DC",
"| 	c #FFFFFF",
"1 	c #FB2237",
"2 	c #FECED2",
"3 	c #FD7F8B",
"4 	c #DBE5E6",
"5 	c #93B0AD",
"6 	c #B6CAC9",
"7 	c #E4EDEE",
"8 	c #FBE1E4",
"9 	c #FA5867",
"0 	c #FB7985",
"a 	c #FDFFFF",
"b 	c #FB182E",
"c 	c #FDC0C5",
"d 	c #FC7B87",
"e 	c #E5ECED",
"f 	c #B7CBCA",
"g 	c #C2D3D3",
"h 	c #DAE6E7",
"i 	c #F3EEEF",
"j 	c #FAC9CE",
"k 	c #FB4D5E",
"l 	c #FDEEEF",
"m 	c #FA0017",
"n 	c #FB7481",
"o 	c #FB7683",
"p 	c #F9FFFF",
"q 	c #DCE7E7",
"r 	c #C2D3D4",
"s 	c #B4C9C8",
"t 	c #D4E2E3",
"u 	c #E3D6D9",
"v 	c #F37C89",
"w 	c #F8959F",
"x 	c #FAFCFD",
"y 	c #FA8995",
"z 	c #FAE8EA",
"A 	c #F5B8BF",
"B 	c #E7F2F2",
"C 	c #D5E2E3",
"D 	c #B4C9C9",
"E 	c #98B4B3",
"F 	c #CAD9DA",
"G 	c #D7E5E3",
"H 	c #E2F3EA",
"I 	c #ECF9ED",
"J 	c #F1F4EA",
"K 	c #F2FFF2",
"L 	c #E9EEE5",
"M 	c #E5F0E8",
"N 	c #DCE6DE",
"O 	c #CBDADA",
"P 	c #9BB8B6",
"Q 	c #A8C0BF",
"R 	c #D6E1DE",
"S 	c #CFD9D7",
"T 	c #DCE4E2",
"U 	c #D8E2E1",
"V 	c #D0DAD6",
"W 	c #DBE4E1",
"X 	c #D5E1E2",
"Y 	c #A8C1BF",
"Z 	c #B1C7C7",
"` 	c #C6D5D6",
" .	c #C3D5D5",
"..	c #BECFCF",
"+.	c #CBDADB",
"@.	c #D4E0E1",
"#.	c #B2C8C7",
"$.	c #CFDDDD",
"%.	c #AAC2C4",
"&.	c #A6BDC0",
"*.	c #C4D6D8",
"=.	c #BDD0D1",
"-.	c #A2BDBF",
";.	c #C7D5D8",
">.	c #A3B7B9",
",.	c #95AEAF",
"'.	c #ACC2C7",
").	c #94B4B7",
"!.	c #9EAB78",
"~.	c #9BB29D",
"{.	c #90AAAF",
"].	c #8AA6AC",
"^.	c #8FAA96",
"/.	c #95A778",
"(.	c #A2971A",
"_.	c #ACA644",
":.	c #C9C95E",
"<.	c #D3D45F",
"[.	c #B9B34A",
"}.	c #A5981C",
"|.	c #ACA11C",
"1.	c #D0CD4C",
"2.	c #E9E989",
"3.	c #F0F09E",
"4.	c #D5D25F",
"5.	c #ABA11E",
"6.	c #A69918",
"7.	c #B6B02E",
"8.	c #CCCB45",
"9.	c #D0CF47",
"0.	c #BCB836",
"a.	c #A69A1A",
"b.	c #AFA626",
"c.	c #B1AC32",
"d.	c #AFA931",
"e.	c #AEA525",
"f.	c #AA9F27",
"g.	c #A79B22",
"                              . . . . . ",
"                + @ @ #           .     ",
"            $ % & * = - ; >       .     ",
"          , ' ) ! ~ { ] ^ / (     .     ",
"        _ : < [ } | 1 2 3 | 4 5   .     ",
"        6 7 8 9 0 a b c d | e f   .     ",
"        g h i j k l m n o p q r   .     ",
"        s t u v w x y z A B C D         ",
"        E F G H I J K L M N O P         ",
"          Q C R S T U V W X Y           ",
"            Z C `  ...+.@.#.            ",
"               .$.%.&.*.=.              ",
"              -.;.>.,.'.).              ",
"              !.~.{.].^./.              ",
"              (._.:.<.[.}.              ",
"              |.1.2.3.4.5.              ",
"              6.7.8.9.0.a.              ",
"                b.c.d.e.                ",
"                  f.g.                  ",
"                                        "};
